<mxfile host="app.diagrams.net" agent="Mozilla/5.0 (Windows NT 10.0; Win64; x64) AppleWebKit/537.36 (KHTML, like Gecko) Chrome/134.0.0.0 Safari/537.36" version="26.1.3">
  <diagram id="XDU4UbdjK_8y-OHAIS_u" name="Page-1">
    <mxGraphModel dx="1674" dy="780" grid="1" gridSize="10" guides="1" tooltips="1" connect="1" arrows="1" fold="1" page="1" pageScale="1" pageWidth="850" pageHeight="1100" math="0" shadow="0">
      <root>
        <mxCell id="0" />
        <mxCell id="1" parent="0" />
        <mxCell id="SLdXMpWC4aIWYxyRFHL2-1" value="player:Player" style="swimlane;fontStyle=0;align=center;verticalAlign=top;childLayout=stackLayout;horizontal=1;startSize=26;horizontalStack=0;resizeParent=1;resizeLast=0;collapsible=1;marginBottom=0;rounded=0;shadow=0;strokeWidth=1;" vertex="1" parent="1">
          <mxGeometry x="110" y="40" width="160" height="160" as="geometry">
            <mxRectangle x="230" y="140" width="160" height="26" as="alternateBounds" />
          </mxGeometry>
        </mxCell>
        <mxCell id="SLdXMpWC4aIWYxyRFHL2-2" value="speed = 10" style="text;align=left;verticalAlign=top;spacingLeft=4;spacingRight=4;overflow=hidden;rotatable=0;points=[[0,0.5],[1,0.5]];portConstraint=eastwest;" vertex="1" parent="SLdXMpWC4aIWYxyRFHL2-1">
          <mxGeometry y="26" width="160" height="26" as="geometry" />
        </mxCell>
        <mxCell id="SLdXMpWC4aIWYxyRFHL2-3" value="jump = 5" style="text;align=left;verticalAlign=top;spacingLeft=4;spacingRight=4;overflow=hidden;rotatable=0;points=[[0,0.5],[1,0.5]];portConstraint=eastwest;rounded=0;shadow=0;html=0;" vertex="1" parent="SLdXMpWC4aIWYxyRFHL2-1">
          <mxGeometry y="52" width="160" height="26" as="geometry" />
        </mxCell>
        <mxCell id="SLdXMpWC4aIWYxyRFHL2-4" value="RigidBody2D" style="text;align=left;verticalAlign=top;spacingLeft=4;spacingRight=4;overflow=hidden;rotatable=0;points=[[0,0.5],[1,0.5]];portConstraint=eastwest;rounded=0;shadow=0;html=0;" vertex="1" parent="SLdXMpWC4aIWYxyRFHL2-1">
          <mxGeometry y="78" width="160" height="26" as="geometry" />
        </mxCell>
        <mxCell id="SLdXMpWC4aIWYxyRFHL2-5" value="move = 0" style="text;align=left;verticalAlign=top;spacingLeft=4;spacingRight=4;overflow=hidden;rotatable=0;points=[[0,0.5],[1,0.5]];portConstraint=eastwest;" vertex="1" parent="SLdXMpWC4aIWYxyRFHL2-1">
          <mxGeometry y="104" width="160" height="26" as="geometry" />
        </mxCell>
        <mxCell id="SLdXMpWC4aIWYxyRFHL2-6" value="isJumping = false" style="text;align=left;verticalAlign=top;spacingLeft=4;spacingRight=4;overflow=hidden;rotatable=0;points=[[0,0.5],[1,0.5]];portConstraint=eastwest;rounded=0;shadow=0;html=0;" vertex="1" parent="SLdXMpWC4aIWYxyRFHL2-1">
          <mxGeometry y="130" width="160" height="26" as="geometry" />
        </mxCell>
        <mxCell id="SLdXMpWC4aIWYxyRFHL2-7" style="edgeStyle=orthogonalEdgeStyle;rounded=0;orthogonalLoop=1;jettySize=auto;html=1;entryX=0.5;entryY=0;entryDx=0;entryDy=0;fontSize=12;startSize=8;endSize=8;exitX=0.5;exitY=1;exitDx=0;exitDy=0;endArrow=none;endFill=0;" edge="1" parent="1" source="SLdXMpWC4aIWYxyRFHL2-16" target="SLdXMpWC4aIWYxyRFHL2-8">
          <mxGeometry relative="1" as="geometry">
            <mxPoint x="440.0000000000001" y="160" as="sourcePoint" />
            <Array as="points">
              <mxPoint x="440" y="280" />
            </Array>
          </mxGeometry>
        </mxCell>
        <mxCell id="SLdXMpWC4aIWYxyRFHL2-8" value="pt:PageTable" style="swimlane;fontStyle=0;align=center;verticalAlign=top;childLayout=stackLayout;horizontal=1;startSize=26;horizontalStack=0;resizeParent=1;resizeLast=0;collapsible=1;marginBottom=0;rounded=0;shadow=0;strokeWidth=1;" vertex="1" parent="1">
          <mxGeometry x="325" y="280" width="235" height="190" as="geometry">
            <mxRectangle x="230" y="140" width="160" height="26" as="alternateBounds" />
          </mxGeometry>
        </mxCell>
        <mxCell id="SLdXMpWC4aIWYxyRFHL2-9" value="slotToBlockMap = []" style="text;align=left;verticalAlign=top;spacingLeft=4;spacingRight=4;overflow=hidden;rotatable=0;points=[[0,0.5],[1,0.5]];portConstraint=eastwest;rounded=0;shadow=0;html=0;" vertex="1" parent="SLdXMpWC4aIWYxyRFHL2-8">
          <mxGeometry y="26" width="235" height="26" as="geometry" />
        </mxCell>
        <mxCell id="SLdXMpWC4aIWYxyRFHL2-10" value="pageSlots = [p0p]" style="text;align=left;verticalAlign=top;spacingLeft=4;spacingRight=4;overflow=hidden;rotatable=0;points=[[0,0.5],[1,0.5]];portConstraint=eastwest;" vertex="1" parent="SLdXMpWC4aIWYxyRFHL2-8">
          <mxGeometry y="52" width="235" height="26" as="geometry" />
        </mxCell>
        <mxCell id="SLdXMpWC4aIWYxyRFHL2-11" value="frameslots = [p0f]" style="text;align=left;verticalAlign=top;spacingLeft=4;spacingRight=4;overflow=hidden;rotatable=0;points=[[0,0.5],[1,0.5]];portConstraint=eastwest;rounded=0;shadow=0;html=0;" vertex="1" parent="SLdXMpWC4aIWYxyRFHL2-8">
          <mxGeometry y="78" width="235" height="26" as="geometry" />
        </mxCell>
        <mxCell id="SLdXMpWC4aIWYxyRFHL2-12" value="pageblocks = [p1]" style="text;align=left;verticalAlign=top;spacingLeft=4;spacingRight=4;overflow=hidden;rotatable=0;points=[[0,0.5],[1,0.5]];portConstraint=eastwest;rounded=0;shadow=0;html=0;" vertex="1" parent="SLdXMpWC4aIWYxyRFHL2-8">
          <mxGeometry y="104" width="235" height="26" as="geometry" />
        </mxCell>
        <mxCell id="SLdXMpWC4aIWYxyRFHL2-13" value="frameBlocks = [f1]" style="text;align=left;verticalAlign=top;spacingLeft=4;spacingRight=4;overflow=hidden;rotatable=0;points=[[0,0.5],[1,0.5]];portConstraint=eastwest;" vertex="1" parent="SLdXMpWC4aIWYxyRFHL2-8">
          <mxGeometry y="130" width="235" height="26" as="geometry" />
        </mxCell>
        <mxCell id="SLdXMpWC4aIWYxyRFHL2-14" value="PlayerMovement = PlayerMovementScript" style="text;align=left;verticalAlign=top;spacingLeft=4;spacingRight=4;overflow=hidden;rotatable=0;points=[[0,0.5],[1,0.5]];portConstraint=eastwest;rounded=0;shadow=0;html=0;" vertex="1" parent="SLdXMpWC4aIWYxyRFHL2-8">
          <mxGeometry y="156" width="235" height="26" as="geometry" />
        </mxCell>
        <mxCell id="SLdXMpWC4aIWYxyRFHL2-15" style="edgeStyle=none;curved=1;rounded=0;orthogonalLoop=1;jettySize=auto;html=1;fontSize=12;startSize=8;endSize=8;endArrow=none;endFill=0;entryX=0;entryY=0.5;entryDx=0;entryDy=0;exitX=1;exitY=0.5;exitDx=0;exitDy=0;" edge="1" parent="1" source="SLdXMpWC4aIWYxyRFHL2-4" target="SLdXMpWC4aIWYxyRFHL2-16">
          <mxGeometry relative="1" as="geometry">
            <mxPoint x="230" y="140" as="sourcePoint" />
            <mxPoint x="320" y="130" as="targetPoint" />
          </mxGeometry>
        </mxCell>
        <mxCell id="SLdXMpWC4aIWYxyRFHL2-16" value="Scene" style="rounded=0;whiteSpace=wrap;html=1;" vertex="1" parent="1">
          <mxGeometry x="380" y="116" width="120" height="30" as="geometry" />
        </mxCell>
        <mxCell id="SLdXMpWC4aIWYxyRFHL2-17" style="edgeStyle=orthogonalEdgeStyle;rounded=0;orthogonalLoop=1;jettySize=auto;html=1;entryX=0.5;entryY=1;entryDx=0;entryDy=0;fontSize=12;startSize=8;endSize=8;endArrow=none;endFill=0;exitX=0.5;exitY=0;exitDx=0;exitDy=0;" edge="1" parent="1" source="SLdXMpWC4aIWYxyRFHL2-29" target="SLdXMpWC4aIWYxyRFHL2-16">
          <mxGeometry relative="1" as="geometry">
            <Array as="points">
              <mxPoint x="725" y="240" />
              <mxPoint x="440" y="240" />
            </Array>
            <mxPoint x="540" y="280" as="sourcePoint" />
          </mxGeometry>
        </mxCell>
        <mxCell id="SLdXMpWC4aIWYxyRFHL2-18" style="edgeStyle=orthogonalEdgeStyle;rounded=0;orthogonalLoop=1;jettySize=auto;html=1;entryX=0.5;entryY=1;entryDx=0;entryDy=0;fontSize=12;startSize=8;endSize=8;endArrow=none;endFill=0;" edge="1" parent="1" source="SLdXMpWC4aIWYxyRFHL2-19" target="SLdXMpWC4aIWYxyRFHL2-16">
          <mxGeometry relative="1" as="geometry">
            <Array as="points">
              <mxPoint x="160" y="240" />
              <mxPoint x="440" y="240" />
            </Array>
          </mxGeometry>
        </mxCell>
        <mxCell id="SLdXMpWC4aIWYxyRFHL2-19" value="mm:MainMemory" style="swimlane;fontStyle=0;align=center;verticalAlign=top;childLayout=stackLayout;horizontal=1;startSize=26;horizontalStack=0;resizeParent=1;resizeLast=0;collapsible=1;marginBottom=0;rounded=0;shadow=0;strokeWidth=1;" vertex="1" parent="1">
          <mxGeometry x="40" y="280" width="250" height="260" as="geometry">
            <mxRectangle x="230" y="140" width="160" height="26" as="alternateBounds" />
          </mxGeometry>
        </mxCell>
        <mxCell id="SLdXMpWC4aIWYxyRFHL2-20" value="frameSlots = [m0f, m1f]" style="text;align=left;verticalAlign=top;spacingLeft=4;spacingRight=4;overflow=hidden;rotatable=0;points=[[0,0.5],[1,0.5]];portConstraint=eastwest;" vertex="1" parent="SLdXMpWC4aIWYxyRFHL2-19">
          <mxGeometry y="26" width="250" height="26" as="geometry" />
        </mxCell>
        <mxCell id="SLdXMpWC4aIWYxyRFHL2-21" value="offsetSlots = [m0d, m1d]" style="text;align=left;verticalAlign=top;spacingLeft=4;spacingRight=4;overflow=hidden;rotatable=0;points=[[0,0.5],[1,0.5]];portConstraint=eastwest;rounded=0;shadow=0;html=0;" vertex="1" parent="SLdXMpWC4aIWYxyRFHL2-19">
          <mxGeometry y="52" width="250" height="26" as="geometry" />
        </mxCell>
        <mxCell id="SLdXMpWC4aIWYxyRFHL2-22" value="slotToBlockMap = {}" style="text;align=left;verticalAlign=top;spacingLeft=4;spacingRight=4;overflow=hidden;rotatable=0;points=[[0,0.5],[1,0.5]];portConstraint=eastwest;rounded=0;shadow=0;html=0;" vertex="1" parent="SLdXMpWC4aIWYxyRFHL2-19">
          <mxGeometry y="78" width="250" height="26" as="geometry" />
        </mxCell>
        <mxCell id="SLdXMpWC4aIWYxyRFHL2-23" value="BlocksToAssign = []" style="text;align=left;verticalAlign=top;spacingLeft=4;spacingRight=4;overflow=hidden;rotatable=0;points=[[0,0.5],[1,0.5]];portConstraint=eastwest;rounded=0;shadow=0;html=0;" vertex="1" parent="SLdXMpWC4aIWYxyRFHL2-19">
          <mxGeometry y="104" width="250" height="26" as="geometry" />
        </mxCell>
        <mxCell id="SLdXMpWC4aIWYxyRFHL2-24" value="slotIndicesToAssign = []" style="text;align=left;verticalAlign=top;spacingLeft=4;spacingRight=4;overflow=hidden;rotatable=0;points=[[0,0.5],[1,0.5]];portConstraint=eastwest;rounded=0;shadow=0;html=0;" vertex="1" parent="SLdXMpWC4aIWYxyRFHL2-19">
          <mxGeometry y="130" width="250" height="26" as="geometry" />
        </mxCell>
        <mxCell id="SLdXMpWC4aIWYxyRFHL2-25" value="slotTypesToAssign = []" style="text;align=left;verticalAlign=top;spacingLeft=4;spacingRight=4;overflow=hidden;rotatable=0;points=[[0,0.5],[1,0.5]];portConstraint=eastwest;rounded=0;shadow=0;html=0;" vertex="1" parent="SLdXMpWC4aIWYxyRFHL2-19">
          <mxGeometry y="156" width="250" height="26" as="geometry" />
        </mxCell>
        <mxCell id="SLdXMpWC4aIWYxyRFHL2-26" value="blockColorChangers = [Light1, Light2]" style="text;align=left;verticalAlign=top;spacingLeft=4;spacingRight=4;overflow=hidden;rotatable=0;points=[[0,0.5],[1,0.5]];portConstraint=eastwest;" vertex="1" parent="SLdXMpWC4aIWYxyRFHL2-19">
          <mxGeometry y="182" width="250" height="26" as="geometry" />
        </mxCell>
        <mxCell id="SLdXMpWC4aIWYxyRFHL2-27" value="targetValues = [6, 2]" style="text;align=left;verticalAlign=top;spacingLeft=4;spacingRight=4;overflow=hidden;rotatable=0;points=[[0,0.5],[1,0.5]];portConstraint=eastwest;rounded=0;shadow=0;html=0;" vertex="1" parent="SLdXMpWC4aIWYxyRFHL2-19">
          <mxGeometry y="208" width="250" height="26" as="geometry" />
        </mxCell>
        <mxCell id="SLdXMpWC4aIWYxyRFHL2-28" value="PlayerMovement = PlayerMovementScript" style="text;align=left;verticalAlign=top;spacingLeft=4;spacingRight=4;overflow=hidden;rotatable=0;points=[[0,0.5],[1,0.5]];portConstraint=eastwest;rounded=0;shadow=0;html=0;" vertex="1" parent="SLdXMpWC4aIWYxyRFHL2-19">
          <mxGeometry y="234" width="250" height="26" as="geometry" />
        </mxCell>
        <mxCell id="SLdXMpWC4aIWYxyRFHL2-29" value="sm:SecondaryMemory" style="swimlane;fontStyle=0;align=center;verticalAlign=top;childLayout=stackLayout;horizontal=1;startSize=26;horizontalStack=0;resizeParent=1;resizeLast=0;collapsible=1;marginBottom=0;rounded=0;shadow=0;strokeWidth=1;" vertex="1" parent="1">
          <mxGeometry x="590" y="280" width="250" height="260" as="geometry">
            <mxRectangle x="230" y="140" width="160" height="26" as="alternateBounds" />
          </mxGeometry>
        </mxCell>
        <mxCell id="SLdXMpWC4aIWYxyRFHL2-30" value="pageSlots = [s0p, s1p]" style="text;align=left;verticalAlign=top;spacingLeft=4;spacingRight=4;overflow=hidden;rotatable=0;points=[[0,0.5],[1,0.5]];portConstraint=eastwest;" vertex="1" parent="SLdXMpWC4aIWYxyRFHL2-29">
          <mxGeometry y="26" width="250" height="26" as="geometry" />
        </mxCell>
        <mxCell id="SLdXMpWC4aIWYxyRFHL2-31" value="offsetSlots = [s0d, s1d]" style="text;align=left;verticalAlign=top;spacingLeft=4;spacingRight=4;overflow=hidden;rotatable=0;points=[[0,0.5],[1,0.5]];portConstraint=eastwest;rounded=0;shadow=0;html=0;" vertex="1" parent="SLdXMpWC4aIWYxyRFHL2-29">
          <mxGeometry y="52" width="250" height="26" as="geometry" />
        </mxCell>
        <mxCell id="SLdXMpWC4aIWYxyRFHL2-32" value="slotToBlockMap = {s1p : pb1, s1d : db1}" style="text;align=left;verticalAlign=top;spacingLeft=4;spacingRight=4;overflow=hidden;rotatable=0;points=[[0,0.5],[1,0.5]];portConstraint=eastwest;rounded=0;shadow=0;html=0;" vertex="1" parent="SLdXMpWC4aIWYxyRFHL2-29">
          <mxGeometry y="78" width="250" height="26" as="geometry" />
        </mxCell>
        <mxCell id="SLdXMpWC4aIWYxyRFHL2-33" value="BlocksToAssign = [pb1, db1]" style="text;align=left;verticalAlign=top;spacingLeft=4;spacingRight=4;overflow=hidden;rotatable=0;points=[[0,0.5],[1,0.5]];portConstraint=eastwest;rounded=0;shadow=0;html=0;" vertex="1" parent="SLdXMpWC4aIWYxyRFHL2-29">
          <mxGeometry y="104" width="250" height="26" as="geometry" />
        </mxCell>
        <mxCell id="SLdXMpWC4aIWYxyRFHL2-34" value="slotIndicesToAssign = [element 1, element 1]" style="text;align=left;verticalAlign=top;spacingLeft=4;spacingRight=4;overflow=hidden;rotatable=0;points=[[0,0.5],[1,0.5]];portConstraint=eastwest;rounded=0;shadow=0;html=0;" vertex="1" parent="SLdXMpWC4aIWYxyRFHL2-29">
          <mxGeometry y="130" width="250" height="26" as="geometry" />
        </mxCell>
        <mxCell id="SLdXMpWC4aIWYxyRFHL2-35" value="slotTypesToAssign = [page number, offset]" style="text;align=left;verticalAlign=top;spacingLeft=4;spacingRight=4;overflow=hidden;rotatable=0;points=[[0,0.5],[1,0.5]];portConstraint=eastwest;rounded=0;shadow=0;html=0;" vertex="1" parent="SLdXMpWC4aIWYxyRFHL2-29">
          <mxGeometry y="156" width="250" height="26" as="geometry" />
        </mxCell>
        <mxCell id="SLdXMpWC4aIWYxyRFHL2-36" value="blockColorChangers = [Light1, Light2]" style="text;align=left;verticalAlign=top;spacingLeft=4;spacingRight=4;overflow=hidden;rotatable=0;points=[[0,0.5],[1,0.5]];portConstraint=eastwest;" vertex="1" parent="SLdXMpWC4aIWYxyRFHL2-29">
          <mxGeometry y="182" width="250" height="26" as="geometry" />
        </mxCell>
        <mxCell id="SLdXMpWC4aIWYxyRFHL2-37" value="targetValues = [5, 2]" style="text;align=left;verticalAlign=top;spacingLeft=4;spacingRight=4;overflow=hidden;rotatable=0;points=[[0,0.5],[1,0.5]];portConstraint=eastwest;rounded=0;shadow=0;html=0;" vertex="1" parent="SLdXMpWC4aIWYxyRFHL2-29">
          <mxGeometry y="208" width="250" height="26" as="geometry" />
        </mxCell>
        <mxCell id="SLdXMpWC4aIWYxyRFHL2-38" value="PlayerMovement = PlayerMovementScript" style="text;align=left;verticalAlign=top;spacingLeft=4;spacingRight=4;overflow=hidden;rotatable=0;points=[[0,0.5],[1,0.5]];portConstraint=eastwest;rounded=0;shadow=0;html=0;" vertex="1" parent="SLdXMpWC4aIWYxyRFHL2-29">
          <mxGeometry y="234" width="250" height="26" as="geometry" />
        </mxCell>
        <mxCell id="SLdXMpWC4aIWYxyRFHL2-39" style="edgeStyle=orthogonalEdgeStyle;rounded=0;orthogonalLoop=1;jettySize=auto;html=1;entryX=0.5;entryY=1;entryDx=0;entryDy=0;endArrow=none;startFill=0;" edge="1" parent="1" source="SLdXMpWC4aIWYxyRFHL2-40" target="SLdXMpWC4aIWYxyRFHL2-8">
          <mxGeometry relative="1" as="geometry" />
        </mxCell>
        <mxCell id="SLdXMpWC4aIWYxyRFHL2-40" value="db1:BlockType" style="swimlane;fontStyle=0;align=center;verticalAlign=top;childLayout=stackLayout;horizontal=1;startSize=26;horizontalStack=0;resizeParent=1;resizeLast=0;collapsible=1;marginBottom=0;rounded=0;shadow=0;strokeWidth=1;" vertex="1" parent="1">
          <mxGeometry x="325" y="690" width="235" height="60" as="geometry">
            <mxRectangle x="230" y="140" width="160" height="26" as="alternateBounds" />
          </mxGeometry>
        </mxCell>
        <mxCell id="SLdXMpWC4aIWYxyRFHL2-41" value="addressValue = 3" style="text;align=left;verticalAlign=top;spacingLeft=4;spacingRight=4;overflow=hidden;rotatable=0;points=[[0,0.5],[1,0.5]];portConstraint=eastwest;" vertex="1" parent="SLdXMpWC4aIWYxyRFHL2-40">
          <mxGeometry y="26" width="235" height="26" as="geometry" />
        </mxCell>
        <mxCell id="SLdXMpWC4aIWYxyRFHL2-42" style="edgeStyle=orthogonalEdgeStyle;rounded=0;orthogonalLoop=1;jettySize=auto;html=1;entryX=0.25;entryY=1;entryDx=0;entryDy=0;endArrow=none;startFill=0;" edge="1" parent="1" source="SLdXMpWC4aIWYxyRFHL2-43" target="SLdXMpWC4aIWYxyRFHL2-8">
          <mxGeometry relative="1" as="geometry">
            <Array as="points">
              <mxPoint x="298" y="570" />
              <mxPoint x="384" y="570" />
            </Array>
          </mxGeometry>
        </mxCell>
        <mxCell id="SLdXMpWC4aIWYxyRFHL2-43" value="fb1:BlockType" style="swimlane;fontStyle=0;align=center;verticalAlign=top;childLayout=stackLayout;horizontal=1;startSize=26;horizontalStack=0;resizeParent=1;resizeLast=0;collapsible=1;marginBottom=0;rounded=0;shadow=0;strokeWidth=1;" vertex="1" parent="1">
          <mxGeometry x="180" y="600" width="235" height="60" as="geometry">
            <mxRectangle x="230" y="140" width="160" height="26" as="alternateBounds" />
          </mxGeometry>
        </mxCell>
        <mxCell id="SLdXMpWC4aIWYxyRFHL2-44" value="addressValue = 3" style="text;align=left;verticalAlign=top;spacingLeft=4;spacingRight=4;overflow=hidden;rotatable=0;points=[[0,0.5],[1,0.5]];portConstraint=eastwest;" vertex="1" parent="SLdXMpWC4aIWYxyRFHL2-43">
          <mxGeometry y="26" width="235" height="26" as="geometry" />
        </mxCell>
        <mxCell id="SLdXMpWC4aIWYxyRFHL2-45" style="edgeStyle=orthogonalEdgeStyle;rounded=0;orthogonalLoop=1;jettySize=auto;html=1;entryX=0.75;entryY=1;entryDx=0;entryDy=0;endArrow=none;startFill=0;" edge="1" parent="1" source="SLdXMpWC4aIWYxyRFHL2-46" target="SLdXMpWC4aIWYxyRFHL2-8">
          <mxGeometry relative="1" as="geometry">
            <Array as="points">
              <mxPoint x="588" y="570" />
              <mxPoint x="501" y="570" />
            </Array>
          </mxGeometry>
        </mxCell>
        <mxCell id="SLdXMpWC4aIWYxyRFHL2-46" value="pb1:BlockType" style="swimlane;fontStyle=0;align=center;verticalAlign=top;childLayout=stackLayout;horizontal=1;startSize=26;horizontalStack=0;resizeParent=1;resizeLast=0;collapsible=1;marginBottom=0;rounded=0;shadow=0;strokeWidth=1;" vertex="1" parent="1">
          <mxGeometry x="470" y="600" width="235" height="60" as="geometry">
            <mxRectangle x="230" y="140" width="160" height="26" as="alternateBounds" />
          </mxGeometry>
        </mxCell>
        <mxCell id="SLdXMpWC4aIWYxyRFHL2-47" value="addressValue = 2" style="text;align=left;verticalAlign=top;spacingLeft=4;spacingRight=4;overflow=hidden;rotatable=0;points=[[0,0.5],[1,0.5]];portConstraint=eastwest;" vertex="1" parent="SLdXMpWC4aIWYxyRFHL2-46">
          <mxGeometry y="26" width="235" height="26" as="geometry" />
        </mxCell>
        <mxCell id="SLdXMpWC4aIWYxyRFHL2-48" style="edgeStyle=orthogonalEdgeStyle;rounded=0;orthogonalLoop=1;jettySize=auto;html=1;entryX=0.214;entryY=0.977;entryDx=0;entryDy=0;entryPerimeter=0;endArrow=none;startFill=0;" edge="1" parent="1" source="SLdXMpWC4aIWYxyRFHL2-41" target="SLdXMpWC4aIWYxyRFHL2-28">
          <mxGeometry relative="1" as="geometry" />
        </mxCell>
        <mxCell id="SLdXMpWC4aIWYxyRFHL2-49" style="edgeStyle=orthogonalEdgeStyle;rounded=0;orthogonalLoop=1;jettySize=auto;html=1;entryX=0.754;entryY=0.977;entryDx=0;entryDy=0;entryPerimeter=0;endArrow=none;startFill=0;" edge="1" parent="1" source="SLdXMpWC4aIWYxyRFHL2-41" target="SLdXMpWC4aIWYxyRFHL2-38">
          <mxGeometry relative="1" as="geometry" />
        </mxCell>
        <mxCell id="SLdXMpWC4aIWYxyRFHL2-50" style="edgeStyle=orthogonalEdgeStyle;rounded=0;orthogonalLoop=1;jettySize=auto;html=1;entryX=0.36;entryY=1.038;entryDx=0;entryDy=0;entryPerimeter=0;endArrow=none;startFill=0;" edge="1" parent="1" source="SLdXMpWC4aIWYxyRFHL2-46" target="SLdXMpWC4aIWYxyRFHL2-38">
          <mxGeometry relative="1" as="geometry" />
        </mxCell>
        <mxCell id="SLdXMpWC4aIWYxyRFHL2-51" style="edgeStyle=orthogonalEdgeStyle;rounded=0;orthogonalLoop=1;jettySize=auto;html=1;entryX=0.717;entryY=1.008;entryDx=0;entryDy=0;entryPerimeter=0;endArrow=none;startFill=0;" edge="1" parent="1" source="SLdXMpWC4aIWYxyRFHL2-43" target="SLdXMpWC4aIWYxyRFHL2-28">
          <mxGeometry relative="1" as="geometry" />
        </mxCell>
        <mxCell id="SLdXMpWC4aIWYxyRFHL2-52" value="BlockColorChanger" style="swimlane;fontStyle=0;align=center;verticalAlign=top;childLayout=stackLayout;horizontal=1;startSize=26;horizontalStack=0;resizeParent=1;resizeLast=0;collapsible=1;marginBottom=0;rounded=0;shadow=0;strokeWidth=1;" vertex="1" parent="1">
          <mxGeometry x="332" y="800" width="228" height="30" as="geometry">
            <mxRectangle x="230" y="140" width="160" height="26" as="alternateBounds" />
          </mxGeometry>
        </mxCell>
        <mxCell id="SLdXMpWC4aIWYxyRFHL2-53" style="edgeStyle=orthogonalEdgeStyle;rounded=0;orthogonalLoop=1;jettySize=auto;html=1;entryX=0.09;entryY=0.977;entryDx=0;entryDy=0;entryPerimeter=0;endArrow=none;startFill=0;" edge="1" parent="1" source="SLdXMpWC4aIWYxyRFHL2-52" target="SLdXMpWC4aIWYxyRFHL2-28">
          <mxGeometry relative="1" as="geometry">
            <Array as="points">
              <mxPoint x="63" y="815" />
            </Array>
          </mxGeometry>
        </mxCell>
        <mxCell id="SLdXMpWC4aIWYxyRFHL2-54" style="edgeStyle=orthogonalEdgeStyle;rounded=0;orthogonalLoop=1;jettySize=auto;html=1;endArrow=none;startFill=0;" edge="1" parent="1" source="SLdXMpWC4aIWYxyRFHL2-52">
          <mxGeometry relative="1" as="geometry">
            <mxPoint x="810" y="540" as="targetPoint" />
            <Array as="points">
              <mxPoint x="810" y="815" />
              <mxPoint x="810" y="541" />
            </Array>
          </mxGeometry>
        </mxCell>
      </root>
    </mxGraphModel>
  </diagram>
</mxfile>
